<?xml version="1.0" standalone="no"?>
<!DOCTYPE svg PUBLIC "-//W3C//DTD SVG 1.1//EN" "http://www.w3.org/Graphics/SVG/1.1/DTD/svg11.dtd" >
<svg xmlns="http://www.w3.org/2000/svg" xmlns:xlink="http://www.w3.org/1999/xlink" version="1.1">
<metadata>
Created by FontForge 20170731 at Fri Feb 18 13:00:31 2022
 By Aleksey,,,
Copyright (c) 2020, wep
</metadata>
<defs>
<font id="aApotik" horiz-adv-x="933" >
  <font-face 
    font-family="a Apotik"
    font-weight="400"
    font-stretch="normal"
    units-per-em="2048"
    panose-1="2 0 5 3 0 0 0 0 0 0"
    ascent="1311"
    descent="-737"
    x-height="496"
    cap-height="1268"
    bbox="-178 -799 2744 1561"
    underline-thickness="102"
    underline-position="-307"
    unicode-range="U+0020-007E"
  />
<missing-glyph horiz-adv-x="2029" 
d="M971 172q-15 0 -15 21q0 22 29 22t29 -6t-15 -21q-16 -16 -28 -16zM1788 154l-117 -62q-26 0 -61 53q-35 54 -70 54q-38 0 -102 -64q-65 -65 -99 -219q-1 3 -1.5 8t-1 13t-1.5 14q-18 215 -108 215l-189 -62q-53 0 -77 37q83 21 108 60q27 41 27 53t-21 12h-2
q-16 0 -94 -37q-83 -38 -100 -82l-140 56q-60 -29 -69 -76q-9 -45 -15 -45q-4 0 -41 49q-30 49 -100 49l-88 -55q-8 0 -29 35q-18 35 -41 35q-17 0 -41 -17q-21 -15 -32 -26q-13 -6 -13 -25q0 -16 9 -16l47 18l65 -61l105 55q21 0 65 -47t74 -47t47 26q6 10 16.5 24t14.5 19
q13 13 16 45q82 -61 107 -61q21 0 51 10q33 -44 94 -47l205 59q16 0 35 -8q18 -9 36 -157q15 -148 33 -148q8 -2 49 -2q36 0 82 174q49 174 74 174q27 0 55 -51q25 -52 66 -55h12q70 0 121 51q47 56 47 61q0 11 -8 11zM377 471q254 166 633 166q377 0 624 -162
q246 -159 246 -360q0 -203 -229 -365q-254 -166 -633 -166q-378 0 -625 162q-246 159 -246 360q0 202 230 365z" />
    <glyph glyph-name="ot" unicode="ot" horiz-adv-x="1775" 
d="M1608 920l364 -13q109 -3 109 -30q0 -28 -86 -78q-85 -46 -119 -49q-8 0 -42.5 -1t-110 -2.5t-150.5 -3.5q-49 -282 -49 -370q0 -121 106 -121q116 0 352 151q53 35 62 35h10q25 0 25 -57q0 -58 -64 -92q-8 -4 -43 -25q-357 -201 -504 -207q-174 3 -174 224q0 124 56 387
l14 71h-49q-248 -207 -500 -288q-80 -24 -143 -33l2 -49q0 -29 -23 -93q-56 -143 -194 -219q-55 -30 -92 -30h-5q-77 0 -178 155q-30 48 -41 74q-16 40 -16 98q0 107 72 154q39 22 57 22h22q68 -3 68 -57q0 -24 -8 -37q-6 -15 -6 -26q0 -32 53 -88q51 -54 74 -64q2 10 2 25
q0 47 -53 120q-52 80 -52 109q0 51 121 98q53 21 82 21l145 -15q127 0 367 140q-2 0 -17.5 3t-29.5 7q-30 8 -55 12q-23 3 -23 19q0 30 133 71q133 44 230 50q16 12 110 73q89 59 115 82q28 28 37 25q10 0 24 -39q15 -41 15 -127v-12z" />
    <glyph glyph-name="kt" unicode="kt" horiz-adv-x="1994" 
d="M537 260q89 0 315 191l35 28q16 13 53 13q79 0 113 -43q8 -8 8 -13l-12 -20q-46 -64 -156 -142q70 -67 96 -71q105 0 479 536q-141 3 -219 23q-86 21 -86 37q0 22 133 69q133 44 230 50q191 131 215 151q39 31 43 29q3 0 26 -29q17 -56 17 -137v-12q115 -1 315 -9
q158 -9 158 -39q0 -23 -86 -73q-84 -46 -117 -49q-10 0 -44.5 -1t-110.5 -2.5t-150 -3.5q-49 -287 -49 -356q0 -135 110 -135q113 0 349 151q56 35 63 35h8q25 0 25 -57t-62 -92q-4 -2 -19.5 -10.5t-27.5 -14.5q-352 -201 -501 -207q-175 3 -175 224q0 124 56 387l4 16
q-266 -382 -422 -549q-156 -166 -279 -166t-194 185l-8 24l-37 -20q-148 -80 -209 -80q-109 3 -162 92q-41 71 -41 190q0 245 168 527q130 220 281 352q78 66 127 66q67 0 67 -109q0 -22 -6 -57q-44 -237 -307 -541q-54 -64 -57 -82q-21 -88 -21 -172t64 -84z" />
    <glyph glyph-name="ik" unicode="ik" horiz-adv-x="1941" 
d="M600 909q0 -48 -92 -116q-89 -68 -172 -68q-82 0 -82 53q0 50 80 115q78 63 174 63q92 0 92 -47zM1573 213q171 -168 598 -168l121 2q35 0 35 -6q0 -9 -37 -64q-46 -63 -62 -94q-113 -73 -311 -73q-257 0 -424 124q-106 78 -141 181q-26 -10 -68 -33q-123 -66 -203 -66
q-84 0 -137 90q-40 70 -43 170q-234 -117 -338 -120h-6q-92 0 -149 63q-58 64 -121 76q-64 9 -64 61q0 53 41 80q40 27 101 27q120 0 233 -101q32 -29 45 -34q16 -4 31 -4q80 0 209 75q2 1 32 19q42 219 189 532l16 33q75 173 217 293q88 76 150 76q57 0 57 -90
q0 -184 -258 -512q-48 -60 -51 -64q-84 -304 -84 -395q0 -94 72 -94q83 0 219 118q138 117 209 117q42 0 80 -41l10 -14q0 -4 -12 -19q-43 -65 -156 -145z" />
    <glyph glyph-name=".notdef" horiz-adv-x="2029" 
d="M971 172q-15 0 -15 21q0 22 29 22t29 -6t-15 -21q-16 -16 -28 -16zM1788 154l-117 -62q-26 0 -61 53q-35 54 -70 54q-38 0 -102 -64q-65 -65 -99 -219q-1 3 -1.5 8t-1 13t-1.5 14q-18 215 -108 215l-189 -62q-53 0 -77 37q83 21 108 60q27 41 27 53t-21 12h-2
q-16 0 -94 -37q-83 -38 -100 -82l-140 56q-60 -29 -69 -76q-9 -45 -15 -45q-4 0 -41 49q-30 49 -100 49l-88 -55q-8 0 -29 35q-18 35 -41 35q-17 0 -41 -17q-21 -15 -32 -26q-13 -6 -13 -25q0 -16 9 -16l47 18l65 -61l105 55q21 0 65 -47t74 -47t47 26q6 10 16.5 24t14.5 19
q13 13 16 45q82 -61 107 -61q21 0 51 10q33 -44 94 -47l205 59q16 0 35 -8q18 -9 36 -157q15 -148 33 -148q8 -2 49 -2q36 0 82 174q49 174 74 174q27 0 55 -51q25 -52 66 -55h12q70 0 121 51q47 56 47 61q0 11 -8 11zM377 471q254 166 633 166q377 0 624 -162
q246 -159 246 -360q0 -203 -229 -365q-254 -166 -633 -166q-378 0 -625 162q-246 159 -246 360q0 202 230 365z" />
    <glyph glyph-name=".null" horiz-adv-x="0" 
 />
    <glyph glyph-name="nonmarkingreturn" horiz-adv-x="682" 
 />
    <glyph glyph-name="space" unicode=" " horiz-adv-x="679" 
 />
    <glyph glyph-name="exclam" unicode="!" horiz-adv-x="585" 
d="M535 1262q55 30 79 30q25 0 25 -10q0 -7 -10 -45q-15 -50 -29 -119q-19 -91 -100 -332q-88 -258 -99 -307q-18 -65 -18 -106q0 -44 -37 -78q-38 -35 -63 -35q-30 0 -50 33q-10 58 -10 80q0 25 19 129q57 295 155 594q3 10 8.5 23.5t6.5 15.5q27 71 123 127zM106 -4
q0 51 82 115q78 63 172 63q91 0 91 -49q0 -51 -91 -117q-89 -65 -167 -65h-5q-82 3 -82 53z" />
    <glyph glyph-name="quotedbl" unicode="&#x22;" horiz-adv-x="770" 
d="M766 885q0 -50 -49 -80q-30 -20 -55 -17q-54 3 -54 82q0 32 6 88q10 56 13 111q3 59 20 94q12 36 90 84q77 47 103 47q18 0 18 -20q-5 -33 -35 -111q-32 -81 -45 -176q-12 -86 -12 -102zM500 885q0 -50 -49 -80q-30 -20 -56 -17q-53 3 -53 82q0 32 6 88q9 48 12 111
q3 56 21 94q12 36 90 84q77 47 102 47q19 0 19 -20q-5 -33 -35 -111q-32 -81 -45 -176q-12 -86 -12 -102z" />
    <glyph glyph-name="numbersign" unicode="#" horiz-adv-x="1003" 
d="M594 733l-137 -330q138 11 190 17l131 313q-31 -2 -94 -2q-59 0 -90 2zM330 395l143 344q-48 3 -104 25q-22 19 -25 35q0 18 21 39q23 23 51 14q33 -7 59 -4h43l115 276h123l-111 -266q27 3 88 6q16 2 103 8l104 252h123l-102 -247h34h49q22 3 31 0q6 -2 10 -17
q0 -17 -18 -47q-35 -59 -86 -65q-5 -1 -19 -3t-28.5 -3.5t-30.5 -2.5l-131 -315q19 0 35 -2q35 0 49 2q24 3 33 0q5 -3 8 -18q3 -13 -18 -48q-35 -59 -84 -65q-26 -3 -80 -6l-123 -295h-123l119 289q-31 -2 -92 -2q-62 0 -93 2l-118 -289h-123l123 295q-53 3 -105 24
q-21 18 -24 35q0 16 20 39q25 22 53 16q31 -8 58 -8q18 2 43 2z" />
    <glyph glyph-name="dollar" unicode="$" horiz-adv-x="937" 
d="M602 231q126 6 191 41q-51 70 -158 148zM618 1028q-118 0 -153 -14q-37 -15 -37 -64q0 -96 139 -211zM358 39q-296 0 -299 145q0 62 52 123q50 62 77 62q29 0 29 -29q3 -68 156 -96q62 -11 106 -13l47 267q-141 100 -217 182q-73 85 -73 176q0 92 65 172q65 86 111 113
q84 56 237 65l25 146h123l-25 -148q190 -15 285 -74q45 -26 45 -53q0 -25 -55 -59q-57 -31 -76 -31q-20 0 -70 17q-60 15 -162 20l-63 -365q5 -3 15.5 -9t15.5 -9q180 -117 239 -192q55 -70 55 -130q0 -108 -180 -190q-117 -54 -250 -74l-26 -157h-123l24 143q-31 -2 -88 -2
z" />
    <glyph glyph-name="percent" unicode="%" horiz-adv-x="1290" 
d="M1096 1290h123l-1024 -1298h-123zM555 1204q-27 -27 -39 -33q-25 -20 -39 -36q-25 -32 -51 -123q-31 -102 -31 -146q0 -68 58 -71q20 0 43 10q16 22 32 51q46 88 52 244q-9 81 -25 104zM391 711q-98 0 -98 135q0 170 145 321q77 77 123 80q21 0 33 15q12 12 24 12
q14 0 25 -8q43 -34 43 -148v-4q-3 -249 -174 -362q-65 -41 -121 -41zM895 483q-25 -25 -39 -32q-22 -18 -39 -37q-25 -32 -51 -123q-31 -102 -31 -146q0 -68 58 -71q20 0 43 10q16 22 32 51q46 88 52 244q-9 81 -25 104zM731 -10q-98 0 -98 137q0 168 145 319q77 77 123 80
q21 0 33 15q12 12 24 12q14 0 25 -8q43 -34 43 -148v-4q-3 -250 -174 -360q-64 -43 -121 -43z" />
    <glyph glyph-name="ampersand" unicode="&#x26;" horiz-adv-x="811" 
d="M500 1210q295 -3 295 -161q0 -155 -279 -521l84 -194q194 84 266 84q49 0 49 -35q0 -38 -61 -96t-100 -58q-13 0 -23 2h-2q-13 0 -74 -28l90 -211h-122l-68 160q-310 -166 -438 -166h-2q-72 0 -72 53q0 83 156 280q155 201 155 254q0 44 -88 246q-90 187 -90 268
q0 123 262 123h62zM438 426q-159 -200 -159 -219q0 -4 6 -4q28 0 213 84zM459 666q143 213 143 311q0 78 -92 78q-107 0 -107 -107q0 -53 23 -162q18 -116 33 -120z" />
    <glyph glyph-name="quotesingle" unicode="'" horiz-adv-x="503" 
d="M500 885q0 -50 -49 -80q-30 -20 -56 -17q-53 3 -53 82q0 32 6 88q9 48 12 111q3 56 21 94q12 36 90 84q77 47 102 47q19 0 19 -20q-5 -33 -35 -111q-32 -81 -45 -176q-12 -86 -12 -102z" />
    <glyph glyph-name="parenleft" unicode="(" horiz-adv-x="573" 
d="M391 879q-115 -239 -115 -549q0 -309 68 -477q66 -163 107 -172q41 -12 41 -50q0 -36 -52 -39h-6h-2q-99 0 -170 177q-67 174 -67 536q0 363 149 643q148 283 334 283q78 -6 78 -51q0 -46 -78 -52q-175 -15 -287 -249z" />
    <glyph glyph-name="parenright" unicode=")" horiz-adv-x="573" 
d="M350 1231h4q100 0 170 -178q70 -180 70 -541q0 -358 -148 -639t-335 -281q-78 6 -78 52q0 47 98 53q102 12 240 184q141 172 141 549q0 373 -68 541q-70 164 -108 172q-39 12 -39 49q0 36 53 39z" />
    <glyph glyph-name="asterisk" unicode="*" horiz-adv-x="489" 
d="M514 844q7 -14 16 -29q54 -79 54 -129t-27 -88q-23 -37 -33 -43q-8 -6 -15 1.5t-11 27.5q-2 2 -15 51q-20 62 -59 145q-12 -14 -32.5 -36.5t-24.5 -26.5q-27 -30 -48 -45q-23 -13 -45 -13q-90 0 -124 21q-3 3 -3 6q0 13 52 47q46 30 127 105q-3 1 -9 3.5t-20 8.5t-27 12
q-50 24 -65 39q-24 15 -33 70q-10 55 -10 69q0 19 14 19q20 -4 66 -39q39 -31 141 -88q1 10 4 34.5t4 39.5q2 34 15 67q9 29 63 60q53 30 70 30q14 -3 14 -16q0 -21 -16 -57q-28 -94 -37 -134q116 45 149 45q29 0 72 -30q43 -34 49 -43q8 -14 -20 -23q-9 -3 -74 -12
q-73 -13 -162 -49z" />
    <glyph glyph-name="plus" unicode="+" 
d="M291 541l59 -4q34 0 164 10q13 91 33 182q21 99 24 123q3 25 19 25q13 0 49 -54q37 -49 37 -92q0 -42 -27 -174q104 8 217 8q100 0 103 -28q0 -15 -49 -58q-52 -39 -105 -45q-108 -6 -192 -8q-40 -189 -68 -246q-27 -53 -55 -53q-9 0 -13 2q-36 12 -36 47q0 38 14 70
q12 24 22 92q2 18 4 35.5t4 32t3 18.5h-13q-165 0 -211 14q-51 12 -51 58q0 45 68 45z" />
    <glyph glyph-name="comma" unicode="," horiz-adv-x="606" 
d="M215 -25q-55 3 -55 50q0 53 69 110q84 72 181 72q94 0 94 -68q0 -95 -185 -289q-136 -139 -184 -139h-6q-14 3 -14 17l139 223q0 21 -39 24z" />
    <glyph glyph-name="hyphen" unicode="-" 
d="M928 412q0 -14 -15 -29q-85 -107 -456 -107q-289 0 -289 64q0 20 27 41q26 20 49 20l78 -8h18l412 31h10h45l65 -2l39 4q17 0 17 -14z" />
    <glyph glyph-name="period" unicode="." horiz-adv-x="612" 
d="M231 137q88 70 191 70q84 0 84 -47q0 -48 -86 -113q-100 -74 -187 -74q-73 0 -73 54q0 51 71 110z" />
    <glyph glyph-name="slash" unicode="/" horiz-adv-x="1187" 
d="M993 1290h123l-921 -1298h-123z" />
    <glyph glyph-name="zero" unicode="0" horiz-adv-x="913" 
d="M242 295q15 -120 112 -123h27q21 0 68 18q44 63 63 103q92 176 104 487q-9 137 -22 162q-15 30 -27 45q-35 -41 -71 -61q-36 -16 -41 -21q0 -3 -25 -28q-38 -55 -51 -78q-28 -49 -86 -219q-51 -176 -51 -285zM823 909l6 -96q-3 -454 -323 -707q-135 -106 -258 -106
q-207 0 -207 242q0 194 115 442q42 92 127 180q93 96 120 115q65 45 86 59q73 37 97 37q9 0 19.5 1t12.5 1q15 15 31 33q26 29 43 29q19 -3 37 -15q66 -51 90 -190q4 -20 4 -25z" />
    <glyph glyph-name="one" unicode="1" horiz-adv-x="608" 
d="M379 987l-4 2q-28 -4 -150 -84q-130 -80 -168 -80q-12 0 -12 13q0 36 123 147q34 26 90 59q60 35 121 74q59 35 90 35h4q53 0 68 -86q7 -30 4 -59q0 -32 -21 -146q-59 -344 -176 -690q-27 -81 -129 -139q-56 -35 -82 -35l-2 2q-26 0 -26 14q0 9 6 27q1 3 5 21t11.5 51.5
t15.5 70.5q31 132 132 441q100 307 100 362z" />
    <glyph glyph-name="two" unicode="2" horiz-adv-x="808" 
d="M213 172q103 23 233 23h23h23q154 -3 157 -45q0 -30 -63 -87q-59 -56 -99 -59q-20 0 -69 8q-62 6 -113 6q-144 0 -280 -47q-53 -16 -66 -16q-18 0 -39 35v4q3 10 92 112q102 118 238 291q149 186 209 277q64 96 106 192q49 104 49 133q0 41 -112 41q-111 0 -197 -28
q-85 -31 -98 -31h-17q-24 3 -24 29q0 25 84 88q87 62 180 86q89 23 131 26h41q186 -3 186 -143q0 -49 -10 -76q-3 -11 -10.5 -29.5t-9.5 -25.5q-75 -195 -301 -477q-120 -154 -244 -287z" />
    <glyph glyph-name="three" unicode="3" horiz-adv-x="641" 
d="M-51 -45q3 31 51 82q47 47 106 65q55 11 142 76q123 132 123 215l-2 2q0 85 -144 199q-64 52 -73 70q-13 21 -15 32q43 38 82.5 72.5t56.5 49t19 16.5q5 3 35 20q82 46 82 127q0 51 -58 66q-13 0 -108 -31q-88 -33 -121 -33h-2q-29 0 -29 10q0 27 119 111q128 86 223 108
q146 -27 146 -145v-4q0 -104 -123 -209q-73 -66 -113 -98q129 -72 186 -176q21 -41 21 -80q0 -42 -12 -86q-38 -132 -293 -344q-109 -88 -146 -105q-72 -35 -110 -35q-43 0 -43 25z" />
    <glyph glyph-name="four" unicode="4" horiz-adv-x="722" 
d="M375 428q73 183 131 272q50 79 121 115q41 21 53 21q13 0 16 -9q0 -6 -12 -30q-20 -52 -47 -129q-49 -136 -59 -168q-101 -264 -136 -449q-15 -83 -104 -139q-48 -31 -74 -31h-2q-29 3 -29 21q0 15 15 114q17 112 65 252q-134 -29 -174 -32q-75 0 -102 53q-10 23 -10 47
q0 22 22 90q60 168 248 489q51 89 90 148q18 26 84 100q62 59 107 78q50 21 59 21q10 0 10 -5q0 -11 -151 -280q-154 -274 -222 -416q-65 -148 -65 -158q0 -9 12 -12h2q19 0 152 37z" />
    <glyph glyph-name="five" unicode="5" horiz-adv-x="851" 
d="M395 575h31q13 0 102 7q65 8 82 8q8 0 23 -6q59 -21 59 -84q0 -38 -20 -88q-154 -213 -443 -342q-66 -29 -79 -29h-3q-14 3 -14 22q0 40 62 105q64 64 137 94q69 23 168 90q28 42 28 56q0 17 -28 14q-39 0 -99 -8q-57 -8 -96 -8q-55 0 -127 38q-47 36 -59 56
q-39 59 -39 131q0 69 49 246q49 173 68 213q17 33 73 71q52 37 78 37q24 -3 21 -29q240 17 342 17q215 0 215 -45q0 -21 -43 -58q-82 -70 -176 -79q-68 -5 -162 -5q-107 0 -207 7q-5 -34 -31 -123q-26 -111 -26 -142v-45q3 -118 114 -121z" />
    <glyph glyph-name="six" unicode="6" horiz-adv-x="780" 
d="M819 1298q43 21 43 13q0 -11 -53 -82q-54 -73 -59 -80q-17 -17 -66 -51q-58 -40 -135 -123q-114 -120 -244 -389q-36 -106 -47 -156q140 -3 246 -92q71 -62 86 -131q0 -1 0.5 -3.5l1.5 -7.5l2 -10q3 -19 -12 -43q-12 -16 -82 -86q-69 -66 -115 -98q-50 -35 -104 -35
q-2 2 -33 2q-29 0 -55 13q-21 10 -68 43q-48 59 -59 81q-35 78 -35 191q0 115 67 270q93 223 385 502q217 205 336 272zM408 94q3 18 -19 53q-20 33 -113 74l-28 12q6 -36 20 -61q40 -82 101 -82h2q13 0 37 4z" />
    <glyph glyph-name="seven" unicode="7" horiz-adv-x="1050" 
d="M659 915l-270 -2h-57q-150 0 -209 9q-55 9 -55 34q3 28 55 68q53 41 115 53q91 13 249 23q191 12 273 12q241 0 244 -96q0 -52 -91 -166q-101 -123 -172 -227q233 -37 236 -86q0 -27 -53 -68t-90 -41h-13q-128 22 -188 27q-180 -303 -227 -543q-3 -21 -7 -33
q-2 -6 -2 -14l-172 -111q-6 34 -6 53v29q3 130 105 367q69 142 145 262q-178 6 -242 18q-65 9 -65 37q0 29 51 68q52 40 119 49q55 8 131 8q67 0 135 -6l98 117q92 109 95 129q-12 30 -132 30z" />
    <glyph glyph-name="eight" unicode="8" horiz-adv-x="1224" 
d="M473 596l-35 -29q4 3 11.5 9t13.5 11t10 9zM561 213q389 6 389 92q-3 67 -288 240q-45 28 -146 82q-96 -107 -160 -258q-28 -70 -28 -93q0 -65 213 -65q8 2 20 2zM918 1133h16q154 0 196 -48q23 -30 23 -53q0 -24 -16 -61q-15 -35 -117 -123q-96 -86 -152 -129
q150 -96 226 -207q55 -76 55 -119q0 -41 -14 -96q-8 -6 -22 -18t-37 -32.5t-44 -37.5q-90 -80 -108 -92q-77 -55 -199 -78q-128 -25 -238 -25q-112 0 -208 35q-135 46 -138 146q0 54 33 133q58 144 156 235q39 39 112 101q-61 30 -198 94q-156 74 -176 106q-7 10 -7 23
q0 55 142 141q9 9 18 12q10 7 84 23q274 70 613 70zM975 915q12 14 16 27q0 8 -43 8q-92 0 -473 -39q210 -78 348 -163z" />
    <glyph glyph-name="nine" unicode="9" horiz-adv-x="935" 
d="M713 907l-113 4q-192 0 -309 -63q-44 -58 -47 -96q0 -43 71 -64q2 0 4 -2h29q126 0 289 117q86 63 117 63h2q48 0 82 -100q6 -46 6 -113q0 -73 -45 -252q-55 -152 -160 -251l-57 -58q-53 -50 -70 -57q-79 -39 -141 -39q-56 0 -113 31q-51 31 -51 63q0 34 51 70
q53 35 76 35l2 -2q24 0 57 -17q40 -14 72 -14q40 0 84 20q43 68 72 185q30 120 36 202q6 83 9 105q3 24 -11 24q-10 0 -75 -47q-66 -47 -142 -92q-71 -45 -135 -45q-58 0 -133 16q-63 37 -88 68q-23 38 -23 72q0 38 21 75q22 39 113 127q94 94 159 134q113 70 275 79
q111 -3 176 -36q62 -35 65 -54q0 -22 -65 -57q-70 -31 -90 -31z" />
    <glyph glyph-name="colon" unicode=":" horiz-adv-x="612" 
d="M375 711q87 69 190 69q84 0 84 -47t-86 -112q-100 -74 -186 -74q-74 0 -74 53q0 51 72 111zM231 137q88 70 191 70q84 0 84 -47q0 -48 -86 -113q-100 -74 -187 -74q-73 0 -73 54q0 51 71 110z" />
    <glyph glyph-name="semicolon" unicode=";" horiz-adv-x="606" 
d="M375 711q87 69 190 69q84 0 84 -47t-86 -112q-100 -74 -186 -74q-74 0 -74 53q0 51 72 111zM215 -25q-55 3 -55 50q0 53 69 110q84 72 181 72q94 0 94 -68q0 -95 -185 -289q-136 -139 -184 -139h-6q-14 3 -14 17l139 223q0 21 -39 24z" />
    <glyph glyph-name="less" unicode="&#x3c;" horiz-adv-x="708" 
d="M182 348l-4 92q0 65 39 82q26 11 57 19q12 4 35 11.5t31 10.5q6 2 166 55q140 46 192 70q61 21 68 21h2q12 -3 12 -35q0 -65 -49 -92q-8 -4 -174 -74q-165 -67 -221 -80q25 -10 115 -55q129 -59 145 -64q46 -15 49 -30q2 -2 2 -11q0 -69 -90 -69h-6q-30 -3 -51 6l-47 16
q-242 68 -271 107v20z" />
    <glyph glyph-name="equal" unicode="=" 
d="M918 387q-89 -111 -467 -111q-283 0 -283 64q0 20 27 41q26 20 49 20l78 -8h18l422 31h45q121 0 121 -18q0 -6 -10 -19zM999 633q-89 -111 -467 -111q-282 0 -282 64q0 21 26 41t50 20l77 -8h19l422 31h45q121 0 121 -19q0 -3 -11 -18z" />
    <glyph glyph-name="greater" unicode="&#x3e;" horiz-adv-x="708" 
d="M694 561l4 -92q0 -65 -39 -82q-18 -7 -57 -18q-58 -20 -65 -23q-6 -2 -166 -55q-143 -47 -193 -70q-58 -20 -67 -20h-2q-13 3 -13 35q0 65 49 92q5 3 25 11t64 26.5t85 35.5q164 66 222 80q-15 6 -115 56q-122 55 -145 63q-47 15 -50 31q-2 2 -2 10q0 70 90 70h7
q30 3 51 -6l47 -17q242 -68 270 -106v-21z" />
    <glyph glyph-name="question" unicode="?" horiz-adv-x="806" 
d="M627 995q-3 45 -115 45q-109 0 -195 -28q-85 -31 -98 -31h-16q-25 3 -25 29q0 25 84 88q86 62 178 86q88 26 131 26h43q187 -3 187 -143q0 -46 -10 -76q-3 -9 -10.5 -27.5t-10.5 -27.5q-49 -122 -182 -289q-139 -177 -168 -262q-29 -86 -90 -102q-9 -3 -15 0
q-24 3 -24 82q0 80 41 151q42 69 129 176q82 100 127 195q39 82 39 108zM240 143q79 64 174 64q92 0 92 -47q0 -48 -92 -119q-92 -68 -172 -68q-82 0 -82 52q0 53 80 118z" />
    <glyph glyph-name="at" unicode="@" horiz-adv-x="1552" 
d="M1051 559q0 -41 -93 -76q-29 -11 -47 -16q-94 -24 -178 -102q-40 -37 -37 -50q0 -12 9 -12q31 0 149 53q137 61 150 66q34 12 65 12h37q69 0 131 -59q22 -22 45 -31h35q95 12 104 107q0 133 -139 290q-140 158 -330 158q-191 0 -383 -174q-258 -234 -258 -489v-5
q3 -191 176 -278q94 -49 205 -49h37q21 -3 21 -33l2 -2q-3 -30 -47 -62q-45 -36 -123 -36q-80 0 -160 24q-293 92 -293 389q3 250 190 492q273 343 601 346q175 0 358 -109q278 -169 278 -378q0 -157 -151 -252q-88 -58 -166 -58h-2q-82 0 -123 41q-51 38 -92 41h-2
q-46 0 -162 -49q-46 -20 -102 -41.5t-60 -23.5q-62 -15 -73 -15h-33q-86 3 -86 47q0 45 69 117q2 2 5 2q64 71 200 156q143 90 228 90h4q41 -3 41 -31z" />
    <glyph glyph-name="A" unicode="A" horiz-adv-x="1675" 
d="M1679 340q-56 -35 -82 -35q-24 0 -88 31q6 -83 66 -111q96 6 219 111q126 102 158 102h4q14 -3 14 -45t-74 -119q-72 -75 -237 -184q-165 -104 -242 -104q-95 3 -98 192q0 85 22 211q-116 30 -251 47q-225 -211 -318 -293q-285 -249 -541 -252q-69 0 -145 27
q-68 31 -96 57q-31 31 -31 88q0 176 303 375q305 197 617 197q63 0 176 -10q2 2 129 202q90 147 149 238q75 112 154 154q43 21 108 30h2q33 -3 33 -123q0 -119 -49 -348q-46 -230 -49 -268q196 -70 199 -111q0 -23 -52 -59zM1225 596q67 -13 137 -37q8 46 106 502
q-141 -295 -243 -465zM909 449q-435 -3 -731 -209q-22 -42 -22 -72q0 -83 118 -86q37 0 95 10q305 53 557 357h-17z" />
    <glyph glyph-name="B" unicode="B" horiz-adv-x="1466" 
d="M1237 946q-90 84 -381 84q-53 0 -80 -2q-6 -130 -43 -266q23 12 225 82q247 89 279 102zM270 946l6 -5q7 -5 19.5 -14.5t26.5 -21.5q46 -37 102 -90q56 -74 65 -92q57 197 93 289q-174 -20 -312 -66zM373 6q-40 -15 -58 -12q-16 3 -16 26q0 12 4 58q6 35 6 162
q0 116 -16 282q-55 120 -141 203q-89 89 -89 135q0 11 17 53q173 144 215 172q50 37 207 86q257 78 502 78q336 0 434 -143q15 -35 12 -59q-3 -125 -334 -312q-63 -37 -94 -47q343 -40 440 -100q46 -27 70 -76q22 -49 22 -86q0 -45 -96 -129q-205 -181 -489 -234
q-4 -1 -14.5 -2.5t-30.5 -5t-39 -6.5q-66 -14 -80 -14h-12q-15 3 -15 35q0 31 64 92q107 101 239 110q54 2 156 31q97 32 115 43q-17 39 -82 64q-69 21 -291 55q-236 37 -322 63q-15 -35 -45 -151q-20 -78 -47 -160q-14 -44 -28 -61q-27 -46 -27 -56q-26 -57 -137 -94z" />
    <glyph glyph-name="C" unicode="C" horiz-adv-x="1191" 
d="M371 416q3 -218 381 -221q249 0 395 96q29 20 41 20q11 -3 14 -45q0 -217 -348 -264q-82 -12 -176 -12q-363 0 -477 182q-47 74 -47 164q0 92 36 219q60 157 99 219q163 261 403 391q149 82 287 82q137 -3 250 -88t143 -190q6 -21 6 -31q0 -50 -112 -119q-39 -22 -45 -22
q-11 0 -35 47q-120 221 -326 221h-2q-203 0 -323 -178q-42 -64 -111 -211q-53 -177 -53 -260z" />
    <glyph glyph-name="D" unicode="D" horiz-adv-x="1476" 
d="M834 1030q-39 0 -70 -2q-12 -240 -148 -571q-59 -246 -92 -299q-26 -45 -26 -58q-26 -53 -138 -94q-41 -15 -57 -10q-18 0 -18 24q0 21 6 62t6 154q0 99 -16 286q-55 118 -142 203q-88 88 -88 135q0 11 17 53q173 144 215 172q54 40 258 103q198 61 397 61
q359 0 502 -241q77 -133 80 -310q0 -246 -154 -432q-52 -64 -104 -98q-103 -68 -306 -105q-4 -1 -14.5 -2.5t-30.5 -5t-39 -6.5q-66 -14 -79 -14h-13q-14 3 -14 35t61 90q106 103 248 112q177 9 236 174q20 56 20 125q0 159 -123 291q-149 168 -374 168zM258 946l6 -5
q7 -5 19 -14.5t26 -21.5q53 -43 103 -90q56 -74 65 -92q59 206 92 289q-172 -20 -311 -66z" />
    <glyph glyph-name="E" unicode="E" horiz-adv-x="1208" 
d="M276 946q8 -8 29 -22q3 -2 31 -23q31 -23 37 -27q23 -15 69 -75q44 -56 54 -76q59 206 92 289q-174 -20 -312 -66zM1399 1122q0 -90 -101 -90q-36 0 -110 12q-72 12 -109 15q-2 -2 -6 -2h-76q-27 0 -215 -29q-6 -113 -41 -254q209 43 375 49h23q75 0 75 -41
q0 -38 -51 -80q-93 -84 -239 -96q-63 -3 -242 -28q-27 -76 -47 -121q-41 -163 -72 -244q340 83 567 92h23q76 0 76 -41q0 -34 -49 -80q-93 -84 -240 -96q-73 -5 -270 -31q-164 -22 -254 -37q-51 -26 -82 -26q-8 0 -12 2q-19 3 -19 24t6 62t6 154q0 99 -16 286
q-44 96 -139 199q-90 93 -90 123q0 26 16 69q206 164 242 191q34 17 73 31q199 67 537 102q134 14 223 14q235 0 238 -129z" />
    <glyph glyph-name="F" unicode="F" horiz-adv-x="1157" 
d="M276 946q8 -8 29 -22q3 -2 31 -23q31 -23 37 -27q23 -15 69 -75q44 -56 54 -76q59 206 92 289q-174 -20 -312 -66zM1399 1122q0 -90 -101 -90q-36 0 -110 12q-72 12 -109 15q-2 -2 -6 -2h-76q-27 0 -215 -29q-6 -113 -41 -254q209 43 375 49h23q75 0 75 -41
q0 -38 -51 -80q-93 -84 -239 -96q-48 -2 -242 -26q-27 -75 -47 -123q-50 -209 -111 -336l-10 -21q-23 -53 -135 -94q-41 -15 -57 -10q-19 0 -19 24q0 21 6 62t6 154q0 99 -16 286q-44 96 -139 199q-90 93 -90 123q0 26 16 69q206 164 242 191q34 17 73 31q199 67 537 102
q134 14 223 14q235 0 238 -129z" />
    <glyph glyph-name="G" unicode="G" horiz-adv-x="1087" 
d="M1077 940q-83 123 -252 123q-319 0 -475 -436q-1 -3 -45 -160q-16 -101 -16 -145q0 -50 30 -84q26 -33 70 -33q34 0 125 16q225 73 313 119q100 47 129 47q44 0 56 -63q2 -6 2 -23q0 -67 -41 -182q-38 -103 -60 -146q-54 -110 -157 -168q-46 -24 -58 -24h-14
q-22 3 -22 14q6 26 59 139q114 255 129 279q-25 -9 -53 -25q-302 -140 -418 -157q-46 -4 -68 -4q-147 0 -205 110q-28 61 -28 137q0 82 20 172q50 203 138 334q92 137 249 264q161 130 248 168q81 37 168 37q211 0 334 -200q29 -50 29 -78q0 -33 -50 -60q-45 -26 -73 -26h-2
q-25 0 -62 55z" />
    <glyph glyph-name="H" unicode="H" horiz-adv-x="1433" 
d="M571 1010v4q0 87 -32 90h-2q-34 -3 -170 -86q-151 -92 -195 -105q-51 -22 -70 -22q-9 0 -12 22v2q0 24 33 60q36 39 92 65q38 17 203 119q142 92 162 98q31 9 65 11q44 -17 60 -33q73 -58 73 -334q0 -101 -12 -233q237 18 430 77q21 132 51 244q29 109 51 139
q35 35 91 76q52 44 75 60q8 6 37 -7q65 -30 68 -180q0 -18 -10 -76q-26 -128 -150 -237q-7 -59 -25 -244q-25 -254 -26 -276q-12 -179 -129 -203q-8 -2 -19 -2q-61 3 -61 211q0 120 25 340l2 2q-157 -92 -431 -113q-37 -257 -90 -426q-14 -10 -90 -86q-71 -71 -100 -71h-2
q-7 0 -31 14q-12 10 -35 24q-86 53 -151 156q-36 56 -66 113q-43 101 -43 125q0 46 13 90q36 91 176 166q103 56 217 65q28 289 28 361zM487 164q17 135 35 303q-155 -6 -196 -12q23 -95 161 -291z" />
    <glyph glyph-name="I" unicode="I" horiz-adv-x="739" 
d="M569 995v19q0 87 -32 90h-2q-34 -3 -170 -86q-148 -90 -193 -105q-56 -22 -72 -22q-12 0 -12 24t31 60q37 40 94 65q43 20 201 119q146 93 164 98q31 9 65 11q42 -16 59 -33q72 -60 72 -350q0 -46 -4 -140q-26 -392 -117 -692q-6 -4 -17.5 -15.5t-33 -32t-41.5 -38.5
q-65 -71 -98 -71h-2q-7 0 -31 14q-12 10 -35 24q-86 53 -151 156q-36 56 -66 113q-41 103 -41 153v15q6 72 80 75q59 0 102 -40q38 -38 78 -107q50 -82 88 -135q1 11 8 67t17 137t22 171q37 300 37 456z" />
    <glyph glyph-name="J" unicode="J" horiz-adv-x="745" 
d="M123 891q-39 0 -39 45q0 44 92 88q108 55 242 141q158 98 221 103q40 -15 90 -56q43 -34 43 -202q0 -153 -31 -613q-27 -440 -92 -651q-9 -6 -92 -86q-72 -72 -94 -72q-17 0 -39 15q-2 3 -41 30q-219 133 -219 363q0 231 373 407q5 38 14 256q10 225 10 246q4 25 4 64v45
q0 87 -33 90h-2zM516 221q-172 -67 -172 -129q0 -61 137 -235q12 104 19 184q8 113 16 180z" />
    <glyph glyph-name="K" unicode="K" horiz-adv-x="1460" 
d="M543 639q26 222 26 299v76q0 87 -32 90h-2q-34 -3 -170 -86q-148 -90 -193 -105q-56 -22 -72 -22q-12 0 -12 24t31 60q37 40 94 65q43 20 201 119q146 93 164 98q31 9 65 11q42 -16 59 -33q72 -60 72 -350q0 -70 -2 -107q211 115 533 316q310 190 333 190q2 0 2 -2
q0 -19 -69 -131q-134 -108 -367 -258q-243 -155 -436 -258q102 -17 250 -90q322 -155 530 -389q25 -28 25 -64q0 -38 -53 -76q-49 -41 -82 -41h-4q-30 3 -88 64q-138 144 -498 330q-61 34 -113 55q-30 -204 -82 -371q-9 -6 -92 -86q-68 -71 -100 -71q-7 0 -31 14
q-12 10 -35 24q-86 53 -151 156q-36 56 -66 113q-41 103 -41 153v15q6 72 80 75q59 0 102 -40q38 -38 78 -107q50 -82 88 -135q2 17 7.5 61t14.5 118.5t19 150.5q-80 27 -80 43q0 8 21 32q18 27 76 70z" />
    <glyph glyph-name="L" unicode="L" horiz-adv-x="1251" 
d="M362 109q84 41 271 41q70 0 342 -25q269 -25 328 -25q112 -3 112 -47q-3 -46 -100 -106q-100 -62 -209 -62h-6q-95 0 -375 29q-270 31 -315 31q-53 0 -146 -19q-37 -19 -74 -45q-10 -5 -38.5 -22t-47.5 -27l-24 -16q-28 3 -62 37q1 4 29 55q154 287 275 698
q123 421 192 481q23 23 59 52q41 39 54 45q72 63 143 63q68 0 139 -65q72 -66 72 -152q0 -56 -33 -112q-58 -107 -186 -189q-29 -16 -41 -16q-16 0 -19 24q-3 25 21 49q23 23 47 72q25 52 25 98q0 47 -54 86q-52 37 -67 37t-19 -4q-15 -15 -65 -207q-35 -139 -66 -252
q-16 -57 -92 -251q-77 -197 -137 -297q62 39 67 41z" />
    <glyph glyph-name="M" unicode="M" horiz-adv-x="1888" 
d="M340 -111l-39 2q-2 0 -39 11q-32 10 -55 24q-105 67 -105 350q0 229 48 404l163 90q-1 -51 -2 -113t-1.5 -95t-0.5 -50v-70q3 -369 119 -372h2q77 0 184 168q116 177 275 530q166 363 186 395q22 37 41 58q27 8 84 41q66 32 86 32q27 0 27 -41l-4 -63v-27q2 -33 2 -172
q0 -108 -25 -428q-24 -307 -24 -381q55 120 178 410q130 306 194 401q60 90 189 125h4q16 0 31 -57q0 -4 2 -8q0 -1 0.5 -5.5t1.5 -14.5t2 -21q24 -214 24 -525q3 -287 13 -473q23 -124 34 -153q46 -118 97 -121q16 -3 16 -23q0 -21 -53 -77q-49 -58 -92 -58q-14 0 -35 6
q-234 76 -234 725q0 144 8 277q-156 -365 -241 -467q-24 -27 -111 -111q-80 -74 -102 -92q-16 -13 -51 -10q-115 3 -115 323q0 137 22 410q-117 -222 -192 -334q-88 -131 -248 -276q-159 -144 -264 -144z" />
    <glyph glyph-name="N" unicode="N" horiz-adv-x="1075" 
d="M786 139q0 166 54 498q53 326 53 412q0 16 -2 20q-44 -68 -305 -520q-235 -416 -301 -473q-31 -24 -97 -62l-69 -39v-2h-2q-20 3 -23 33v4q4 37 23 113q110 453 110 549q0 93 -43 133q-41 41 -47 98q3 68 103 68q190 -3 190 -256q0 -47 -6 -105q209 351 326 492
q122 155 229 155h2q131 -3 131 -303q0 -148 -37 -411t-37 -400q0 -134 -34 -209q-34 -73 -99 -73q-119 3 -119 278z" />
    <glyph glyph-name="O" unicode="O" horiz-adv-x="1214" 
d="M389 1010l-143 -76q5 31 10 45q17 62 178 180q63 49 123 70q50 20 131 20q322 0 475 -200q111 -144 111 -304q0 -156 -74 -268q-40 -61 -160 -184q-123 -120 -219 -176q-154 -92 -338 -92q-95 0 -166 24q-134 50 -204 203q-16 38 -33 104q-6 89 -6 107q0 23 8 47
q38 167 194 373q69 89 113 127zM475 1102l10 10zM575 1067q-84 -81 -157 -193q-137 -201 -137 -364v-31q0 -25 26 -102q53 -160 256 -160h29q268 15 369 143q102 129 102 277q0 145 -80 254q-130 173 -408 176z" />
    <glyph glyph-name="P" unicode="P" horiz-adv-x="1382" 
d="M1307 946q-90 84 -418 84q-68 0 -105 -2q-9 -157 -57 -307q25 13 248 94q238 91 332 131zM279 946q10 -10 28 -22q3 -2 31 -23q31 -23 37 -27q25 -16 67 -75q45 -53 56 -76q59 206 92 289q-172 -20 -311 -66zM381 6q-40 -15 -57 -12t-17 26q0 12 4 58q6 35 6 162
q0 116 -16 282q-43 93 -137 199q-92 92 -92 123q0 26 16 69q218 174 248 195q15 11 125 47q300 94 586 94q350 0 460 -143q16 -36 13 -62q-3 -79 -138 -178q-256 -183 -624 -334q-108 -43 -113 -57q-8 -16 -31 -119q-27 -120 -98 -256q-23 -56 -135 -94z" />
    <glyph glyph-name="Q" unicode="Q" horiz-adv-x="1314" 
d="M932 197q-208 -172 -451 -172q-95 0 -166 24q-134 50 -204 203q-16 38 -33 104q-6 89 -6 107q0 23 8 47q38 167 194 373q69 89 113 127l-143 -76q5 31 10 45q17 62 178 180q61 44 121 70q65 20 135 20q323 0 473 -200q111 -144 111 -304q0 -156 -74 -268
q-24 -38 -86 -106q171 -116 320 -277q24 -27 24 -61q0 -35 -55 -78q-53 -38 -82 -41h-2q-32 0 -105 82q-86 86 -280 201zM473 1102l10 10zM573 1067q-84 -81 -157 -193q-137 -201 -137 -364v-31q0 -25 26 -102q53 -160 256 -160h29q139 9 229 45q-229 124 -323 146
q-100 24 -131 43q-33 14 -33 43q0 61 170 61h10q266 0 459 -100l37 -21q53 95 53 223q0 125 -80 234q-130 173 -408 176z" />
    <glyph glyph-name="R" unicode="R" horiz-adv-x="1417" 
d="M1305 946q-90 84 -418 84q-68 0 -105 -2q-9 -157 -57 -307q34 17 250 94q278 109 330 131zM276 946q8 -8 29 -22q3 -2 31 -23q31 -23 37 -27q23 -15 69 -75q44 -56 54 -76q59 206 92 289q-174 -20 -312 -66zM379 6q-40 -15 -55 -12q-19 3 -19 26q0 24 6 58q4 46 4 162
t-16 282q-44 96 -139 199q-90 93 -90 123q0 26 16 69q218 174 248 195q15 11 125 47q300 94 585 94q351 0 461 -143q16 -36 13 -62q-3 -79 -138 -178q-235 -170 -583 -317q67 -23 155 -66q323 -156 531 -389q24 -27 24 -63q0 -38 -53 -76q-49 -41 -82 -41h-4q-31 3 -88 63
q-138 144 -498 330q-94 49 -164 76q-3 -17 -18 -74q-15 -70 -86 -209q-23 -56 -135 -94z" />
    <glyph glyph-name="S" unicode="S" horiz-adv-x="937" 
d="M217 340q6 -111 367 -111q133 0 209 43q-60 84 -232 199q-168 117 -250 205q-75 90 -75 178q0 91 65 174q70 89 111 113q107 67 295 67q80 0 190 -20q104 -24 152 -53q50 -28 53 -58q0 -23 -55 -57q-53 -33 -76 -33q-19 0 -86 21q-67 20 -228 20q-157 0 -194 -12
q-35 -15 -35 -66q0 -132 264 -301q201 -133 254 -203q58 -67 58 -127q0 -110 -189 -192q-186 -86 -428 -86h-10q-315 0 -318 143q3 62 52 123q50 62 77 62q29 0 29 -29z" />
    <glyph glyph-name="T" unicode="T" horiz-adv-x="1200" 
d="M1401 1122q0 -90 -101 -90q-38 0 -112 12q-71 12 -107 15q0 -2 -4 -2h-78q-26 0 -215 -29q-12 -242 -147 -571q-59 -246 -92 -299q-27 -46 -27 -58q-26 -54 -137 -94q-41 -15 -57 -10q-19 0 -19 24q0 21 6 62t6 154q0 99 -16 286q-55 120 -141 203q-88 88 -88 135
q0 13 16 53q173 144 215 172q52 39 178 78q117 40 361 64q240 24 325 24q231 0 234 -129zM279 946l7 -5q6 -5 18 -14.5t26 -21.5q46 -37 102 -90q59 -78 66 -92q59 206 92 289q-172 -20 -311 -66z" />
    <glyph glyph-name="U" unicode="U" horiz-adv-x="1071" 
d="M459 979q0 -172 -53 -498q-54 -332 -54 -411q0 -17 2 -21q44 68 305 520q234 411 304 475q20 17 94 60q68 39 82 39q9 0 12 -31v-4q-4 -37 -23 -113q-110 -453 -110 -549q0 -93 43 -133q41 -41 47 -98q-3 -68 -102 -68q-191 3 -191 256q0 47 6 105q-212 -355 -325 -492
q-122 -155 -230 -155h-2q-131 3 -131 303q0 148 37 411t37 400q0 131 35 209q34 73 98 73q119 -3 119 -278z" />
    <glyph glyph-name="V" unicode="V" horiz-adv-x="1626" 
d="M748 57l6 553q0 164 -27 314q-27 149 -100 149h-2h-2q-120 -3 -301 -385q-34 -71 -80 -170q-14 -32 -27.5 -62t-24 -53.5t-14.5 -31.5l-121 92q21 117 109 323q151 351 295 422q37 18 112 43h47q96 0 177 -112q105 -140 143 -328q20 -101 29 -311q231 593 497 874
q135 144 260 180q18 7 33 7q13 0 31 -11q47 -27 47 -88q0 -58 -31 -61q-38 -3 -118 -86q-172 -184 -431 -766q-84 -192 -145 -301q-77 -179 -104 -232q-32 -59 -48 -98q-28 -72 -57 -72q-21 0 -74 35q-51 34 -65 58q-14 22 -14 118z" />
    <glyph glyph-name="W" unicode="W" horiz-adv-x="2199" 
d="M748 57l6 553q0 164 -27 314q-27 149 -100 149h-2h-2q-120 -3 -301 -385q-34 -71 -80 -170q-14 -32 -27.5 -62t-24 -53.5t-14.5 -31.5l-121 92q21 117 109 323q151 351 295 422q37 18 112 43h47q96 0 177 -112q105 -140 143 -328q20 -101 29 -311q151 387 250 557
q98 173 188 176q37 0 49 -12q11 -11 57 -93q51 -91 66 -129q18 -46 18 -192q0 -112 -4 -256q255 619 473 850q113 119 232 153q21 7 35 7q12 0 30 -11q47 -27 47 -88q0 -58 -30 -61q-75 -3 -256 -275q-54 -96 -262 -532q-215 -453 -279 -514q-42 -57 -57 -57h-2
q-148 41 -148 253q0 61 15 310q10 207 14 375q-28 -57 -162 -400q-122 -320 -254 -581q-14 -27 -29 -62q-28 -72 -57 -72q-21 0 -74 35q-51 34 -65 58q-14 22 -14 118z" />
    <glyph glyph-name="X" unicode="X" horiz-adv-x="1626" 
d="M444 -117q-22 0 -43 15q-45 29 -45 90q0 84 109 241q53 76 190 254q133 169 273 334q-41 65 -68 107q-101 149 -174 149q-72 0 -184 -121q-112 -122 -193 -290q-8 -16 -67 -144q-14 -32 -27.5 -62t-24 -53.5t-14.5 -31.5l-121 92q22 121 109 325q150 350 317 433
q22 11 27 16q7 2 17 7.5t14 6.5h47q134 0 377 -243q62 -68 69 -74q259 290 451 440q47 37 90 76q115 109 180 109q17 0 35 -11q47 -27 47 -86q0 -60 -29 -63q-26 -3 -180 -133q-159 -138 -457 -514q227 -323 379 -605q45 -110 45 -170q0 -77 -82 -77q-46 0 -110 20
q-39 42 -86 137q-12 24 -52 104.5t-67 133.5q-23 51 -147 303q-18 -21 -105 -137q-79 -105 -172 -213q-126 -165 -231 -295q-55 -67 -97 -70z" />
    <glyph glyph-name="Y" unicode="Y" horiz-adv-x="1046" 
d="M780 -143q9 63 33 364q-170 -68 -170 -133q0 -57 137 -231zM434 1044q0 -145 -53 -380q-51 -257 -51 -316q0 -12 2 -16q65 80 299 397q231 315 297 363q29 19 162 77l4 2q19 -3 22 -24v-4q-9 -71 -26 -172q-22 -151 -50 -570q-27 -444 -92 -655q-9 -6 -92 -86
q-69 -72 -102 -72q-6 0 -29 15q-12 10 -43 28q-219 136 -219 349q0 247 373 423q7 65 16 347l-59 -66q-195 -255 -322 -379q-125 -119 -227 -119q-129 3 -129 234q0 113 37 313q36 192 36 303l-2 11q0 94 35 153q34 57 98 57q115 -3 115 -213z" />
    <glyph glyph-name="Z" unicode="Z" horiz-adv-x="1263" 
d="M1100 989q-519 -86 -903 -86q-52 3 -52 41q3 40 72 100q70 67 145 70q86 10 371 51q340 49 500 49q2 -2 6 -2q156 0 156 -65q0 -37 -56 -90q-34 -32 -247 -262q-214 -230 -310 -322q-133 -126 -282 -231q-167 -123 -197 -174q58 36 68 41q84 41 270 41q70 0 342 -25
q269 -25 328 -25q112 -3 112 -47q-3 -46 -100 -106q-100 -62 -209 -62h-6q-95 0 -375 29q-282 31 -323 31q-48 0 -138 -19q-33 -17 -73 -45q-10 -5 -38.5 -22t-47.5 -27l-25 -16q-27 3 -61 37q8 25 57 108q64 126 373 397q112 98 170 156q90 90 209 217q159 167 264 258z
" />
    <glyph glyph-name="bracketleft" unicode="[" horiz-adv-x="411" 
d="M289 -360q-172 0 -172 71q0 16 8 29l237 1382v4q0 61 58 64l51 -6l2 -2l268 35h27h31h30q21 0 21 -31q0 -125 -305 -125q-50 0 -70 2l-221 -1296q214 30 244 30h43l39 2q24 0 24 -28q0 -39 -41 -74q-69 -57 -196 -57h-78z" />
    <glyph glyph-name="backslash" unicode="\" horiz-adv-x="819" 
d="M193 1290l552 -1298h-122l-553 1298h123z" />
    <glyph glyph-name="bracketright" unicode="]" horiz-adv-x="411" 
d="M117 -340q0 139 280 139q75 0 95 -2l221 1297q-225 -31 -238 -31h-24q-14 2 -33 2l-29 -2q-27 0 -27 31q0 32 54 77q51 48 184 48h78q169 0 172 -68q0 -18 -8 -31l-238 -1382v-6q0 -62 -55 -62l-53 4l-271 -32h-22q-18 2 -35 2l-33 -4h-10q-8 0 -8 20z" />
    <glyph glyph-name="asciicircum" unicode="^" horiz-adv-x="708" 
d="M807 938l2 -49q0 -17 -12 -51q-21 -72 -70 -72q-24 0 -35 8q-12 9 -12 57q-5 76 -16 156q-15 111 -15 129q-37 -59 -145 -182q-105 -122 -131 -148q-23 -20 -49 -20q-33 0 -54 8q-24 9 -24 21t39 57q53 60 129 164q81 110 106 139q4 6 18 24.5t23 30.5q33 45 41 52
q13 16 37 16q28 0 49 -8l107 -41q16 -29 16 -115q0 -62 -4 -176z" />
    <glyph glyph-name="underscore" unicode="_" 
d="M143 -8l76 -8h19q130 8 219 16q153 14 202 14q2 -2 7 -2h47h28q40 0 54 2q32 3 32 -10q0 -19 -32 -57q-49 -58 -115 -64q-181 -16 -254 -16q-84 0 -176 6q-76 2 -115 8q-20 7 -53 21q-18 21 -12 35q0 15 26 34q24 21 47 21z" />
    <glyph glyph-name="grave" unicode="`" horiz-adv-x="761" 
d="M477 1307q13 0 80 -23q66 -25 80 -27q30 -27 55 -98q27 -84 45 -143q23 -80 33 -103q10 -30 10 -57q0 -57 -59 -57q-37 3 -45 20q-2 2 -6 17q-2 8 -109 196q-104 183 -104 248q0 27 20 27z" />
    <glyph glyph-name="a" unicode="a" horiz-adv-x="1157" 
d="M20 162q0 54 68 125q18 18 21 22q100 112 268 219q142 89 260 129q77 23 111 23q55 0 55 -41q0 -57 -111 -104q-53 -22 -90 -29q-113 -27 -186 -88q-28 -21 -60 -53q-63 -63 -63 -78h2q0 -17 18 -17q48 0 320 121q12 6 67 29q84 35 156 35q115 0 221 -95q23 -23 45 -32
q12 -4 29 -4q78 0 211 77q64 37 84 37h4q16 -3 16 -45q0 -14 2 -14q0 -54 -41 -78q-4 -2 -14 -7.5t-28.5 -14.5t-36.5 -19q-133 -65 -172 -80q-61 -22 -119 -22q-98 0 -178 65q-57 51 -117 51q-68 0 -248 -77q-247 -107 -383 -107q-111 0 -111 72z" />
    <glyph glyph-name="b" unicode="b" horiz-adv-x="1081" 
d="M510 201h18q18 0 52 12q73 26 106 70q21 27 21 57q0 22 -13 45q-18 37 -18 96q0 122 76 168q44 27 102 27q104 0 145 -84q17 -39 17 -72q0 -69 -66 -153q22 -19 82 -19q117 0 271 68q59 24 73 24v-2q17 0 17 -45q0 -69 -37 -90q-22 -13 -78 -35q-218 -84 -330 -84
q-91 0 -157 54q-169 -144 -285 -197q-73 -31 -133 -31q-156 3 -156 209q0 218 172 598q100 220 180 324q37 45 88 88q88 76 148 76q59 0 59 -82q0 -181 -280 -572q-8 -12 -24.5 -36.5t-22.5 -34.5q-99 -150 -99 -287v-10q3 -82 72 -82z" />
    <glyph glyph-name="c" unicode="c" horiz-adv-x="1009" 
d="M1169 223q-274 -174 -671 -174q-375 0 -375 156q0 111 188 287q235 223 428 223q113 0 113 -80q0 -65 -80 -115q-29 -20 -47 -20q-15 0 -37 16q-36 33 -92 33h-6q-62 0 -150 -55q-127 -139 -127 -203q0 -70 144 -70q237 0 764 193q71 24 73 24h9q24 -3 24 -35
q0 -77 -158 -180z" />
    <glyph glyph-name="d" unicode="d" horiz-adv-x="1239" 
d="M324 195q90 122 219 342q-141 -97 -205 -291q-13 -43 -14 -51zM193 -4q-60 0 -60 84q0 39 12 92q40 182 177 322q45 45 94 86q131 104 192 104q13 0 19 -2q113 212 174 276q45 48 84 48v-2q45 -3 45 -70q0 -35 -19 -193q-30 -258 -30 -376q0 -215 102 -215q95 0 381 194
q137 94 160 94h2q24 -3 24 -49q0 -67 -55 -94q-28 -16 -98 -64q-396 -264 -555 -264q-172 3 -172 328q0 87 12 182q-143 -219 -313 -373q-50 -47 -76 -65q-58 -43 -100 -43z" />
    <glyph glyph-name="e" unicode="e" horiz-adv-x="923" 
d="M494 385q68 -123 231 -123q168 0 401 133q76 43 95 43h4q16 -3 16 -30q0 -80 -123 -156q-117 -72 -317 -127q-158 -45 -252 -45q-124 0 -227 86q-95 80 -95 176q0 49 29 102q70 124 334 252q165 82 239 82h11q80 -3 80 -49q0 -30 -37 -88q-120 -188 -389 -256zM551 598
q-78 -60 -78 -98q0 -21 23 -21l2 -2h2q41 0 106 53q48 42 51 68q0 18 -26 18q-27 0 -80 -18z" />
    <glyph glyph-name="f" unicode="f" horiz-adv-x="878" 
d="M391 70q12 -208 12 -250v-51q0 -318 -106 -424q-34 -34 -117 -78q-40 -19 -45 -19q-8 0 -20 15q-47 56 -47 213q0 394 288 1374l13 37q73 258 131 258h2q27 -3 47 -45q22 -52 22 -119q0 -35 -6 -82q-15 -120 -76 -401q55 14 115 14q75 0 230 -31q153 -30 237 -30
q16 0 70 4q41 4 49 2q31 -3 31 -35q0 -49 -64 -107q-104 -55 -129 -55h-51q-19 0 -152 19q-228 36 -327 36q-31 0 -49 -2q-38 -146 -58 -243z" />
    <glyph glyph-name="g" unicode="g" horiz-adv-x="849" 
d="M373 457q109 50 153 73q52 27 62 50q9 21 -51 -2q-105 -43 -164 -121zM289 -483q0 -64 94 -64q109 0 203 82q76 67 76 129q0 60 -68 113q-31 25 -98 65q-61 -65 -95 -112q-112 -141 -112 -213zM373 -80q-254 166 -254 311q0 132 213 330q207 189 340 189q70 0 104 -52
q17 -27 17 -51q0 -103 -281 -274q-12 -7 -32.5 -19t-59 -35t-68.5 -40q49 -88 219 -187q231 160 416 268q141 78 162 78q12 0 12 -18q-3 -88 -313 -305q-67 -44 -146 -103q154 -109 154 -227q0 -91 -90 -213q-45 -61 -88 -98q-1 0 -55 -43q-232 -179 -357 -179
q-58 0 -104 37q-64 52 -64 136q0 98 86 243q68 119 189 252z" />
    <glyph glyph-name="h" unicode="h" horiz-adv-x="1363" 
d="M260 170q-39 68 -39 186q0 249 180 551q122 208 258 322q88 76 144 76q61 0 61 -99q0 -39 -8 -80q-40 -220 -240 -452q-117 -135 -139 -223q-6 -27 -6 -68q0 -123 64 -123h2q91 0 303 182l45 37q16 13 61 13q18 0 43 -5q57 -18 92 -165q21 -89 45 -113q16 -16 45 -16h3
q93 0 319 157q125 88 158 88h2q18 -3 18 -35q0 -77 -94 -135q-47 -29 -86 -57q-254 -180 -361 -217q-24 -8 -55 -8q-137 0 -239 268l-11 25l-30 -17q-8 -4 -19 -11t-26.5 -17t-26.5 -17q-207 -139 -307 -139h-2q-101 0 -154 92z" />
    <glyph glyph-name="i" unicode="i" horiz-adv-x="679" 
d="M598 362q30 -27 47 -34q12 -4 29 -4q78 0 211 77q64 37 84 37h2q20 -3 20 -45q0 -69 -49 -96q-13 -9 -47 -25q-235 -113 -332 -116h-6q-94 0 -158 73q-52 55 -108 64q-68 12 -68 69q0 49 43 76q42 25 99 25q120 0 233 -101zM600 909q0 -47 -84 -110q-100 -74 -186 -74
q-76 0 -76 53q0 50 72 107q89 71 190 71q84 0 84 -47z" />
    <glyph glyph-name="j" unicode="j" horiz-adv-x="602" 
d="M233 -45q-251 -149 -251 -408q0 -131 63 -131v2q42 0 90 97q71 152 98 440zM600 911q0 -44 -82 -108q-104 -78 -190 -78q-74 0 -74 53q0 52 72 109q87 69 190 69q84 0 84 -45zM211 279l-37 -5q-37 0 -37 50q0 57 56 104q48 39 104 39q140 0 164 -254l434 225q18 0 18 -35
q0 -78 -94 -133q-10 -7 -45 -28q-240 -147 -317 -183q-6 -34 -35 -131q-17 -61 -29 -112q-38 -145 -108 -295q-181 -252 -334 -252q-129 0 -129 174q0 220 213 477q104 125 211 201q2 16 2 49q0 106 -37 109z" />
    <glyph glyph-name="k" unicode="k" horiz-adv-x="1261" 
d="M633 158q-142 -80 -230 -80h-2q-90 0 -139 88q-41 77 -41 192q0 247 180 549q122 208 258 322q88 76 144 76q61 0 61 -99q0 -39 -8 -80q-40 -220 -240 -452q-117 -135 -139 -223q-6 -27 -6 -68q0 -123 64 -123h2q89 0 321 197l16 12q30 23 74 23q67 0 105 -41q8 -8 8 -15
q0 -5 -12 -20q-46 -64 -156 -142q84 -81 162 -81h2q112 0 354 169q110 76 133 76h2q25 0 25 -43q0 -77 -80 -112q-44 -20 -168 -99q-329 -215 -455 -215q-119 0 -190 185l-8 24z" />
    <glyph glyph-name="l" unicode="l" horiz-adv-x="811" 
d="M436 12q-219 0 -219 303q0 281 189 600q125 208 253 316q89 74 140 74q65 0 65 -125q0 -220 -205 -459q-186 -213 -186 -393q0 -131 100 -131q116 0 381 168q118 75 142 75q24 -24 24 -59q0 -65 -88 -102q-49 -20 -145 -82q-280 -185 -451 -185z" />
    <glyph glyph-name="m" unicode="m" horiz-adv-x="2371" 
d="M1077 305l-39 8q-46 0 -143 -75q-111 -85 -209 -121q-38 -15 -53 -15h-19q-73 0 -192 88q-113 84 -176 84q-26 0 -56 -12q-22 -9 -32 -6q-13 3 -13 27q0 45 45 96q57 63 119 63q78 0 230 -94q149 -79 196 -82h4q54 0 187 109q144 117 209 117h2q27 0 88 -25
q78 -53 133 -170q45 -99 84 -102h2q50 0 205 116q68 53 110 76q62 39 115 39q84 0 190 -127q32 -37 60 -57q21 -15 57 -15q114 0 354 150q100 63 121 63l2 -2q23 -3 23 -49q0 -65 -49 -92l-45 -23q-37 -18 -113 -61q-259 -149 -330 -158q-8 -2 -30 -2q-123 0 -185 74
q-7 7 -28 35q-26 35 -52 61q-23 23 -57 23q-56 0 -147 -58q-21 -14 -23 -16q-11 -11 -37 -27q-167 -112 -229 -112h-31q-19 0 -47 14q-47 21 -70 51q-17 22 -39 78q-47 117 -92 129z" />
    <glyph glyph-name="n" unicode="n" horiz-adv-x="1628" 
d="M180 338q0 106 127 106q124 0 205 -137q75 -139 106 -139q28 0 115 78l105 92q64 55 137 55q75 0 221 -82t260 -82q113 0 275 107q162 104 184 104q22 -22 22 -63t-186 -193q-189 -151 -360 -151q-173 0 -322 90q-146 90 -201 90h-2q-56 0 -141 -76l-53 -45
q-103 -86 -176 -86q-74 0 -156 129q-79 132 -119 135q-41 6 -41 68z" />
    <glyph glyph-name="o" unicode="o" horiz-adv-x="835" 
d="M344 186q-57 34 -92 90q-30 -36 -41 -47q-76 -85 -76 -106q0 -8 12 -8q21 0 74 18q48 16 123 53zM420 494q-8 -19 -8 -48q3 -92 123 -116q49 64 49 116q0 63 -78 66q-42 0 -86 -18zM463 143q-250 -188 -383 -188q-50 0 -92 31q-31 22 -31 49q0 49 117 178l12 12
q49 57 92 158q43 100 74 100q24 0 108 72q54 48 86 68q83 53 160 53q79 0 125 -55q39 -42 39 -101q0 -88 -96 -198q203 3 381 90q53 26 73 26h2q17 -3 17 -41q0 -73 -53 -100q-1 -1 -3 -2t-6 -3.5t-8 -4.5l-30 -17q-257 -139 -453 -139q-60 0 -131 12z" />
    <glyph glyph-name="p" unicode="p" horiz-adv-x="1853" 
d="M301 -481l57 557q-3 201 -143 213q-63 3 -63 43q0 56 122 96q73 25 129 25q215 0 215 -340q0 -168 -49 -435q227 488 543 740q171 137 283 137q122 0 192 -174q62 -154 160 -154q90 0 252 131q100 80 131 80h2q10 -3 10 -28q0 -58 -59 -123q-79 -85 -250 -168
q-168 -82 -272 -82q-158 0 -213 199q-40 137 -115 137h-2q-85 -3 -395 -611q-85 -166 -129 -239q-76 -126 -187 -201q-70 -49 -114 -49q-105 0 -105 246z" />
    <glyph glyph-name="q" unicode="q" horiz-adv-x="1296" 
d="M813 520q-286 -26 -446 -119q-97 -114 -97 -200v-11q3 -47 37 -47h2q91 0 426 308q11 10 78 69zM780 240v2q0 106 -26 106q-18 0 -62 -47q-37 -42 -139 -127q-239 -199 -340 -199q-27 0 -61 17q-76 40 -76 131q0 162 241 360q98 79 185 123q153 78 329 78q117 0 117 -33
q0 -24 -67 -94q-4 -5 -14 -16t-13 -15q49 -3 84 -71q57 -108 57 -344q0 -190 -34 -465q-19 -149 -19 -189q84 242 176 434q180 381 398 527q39 26 53 26q17 -3 28 -53l5 -35q-3 -19 -25 -41q-83 -68 -358 -567q-135 -246 -222 -379q-102 -147 -166 -147q-38 0 -83 45
q-6 20 -12.5 39.5l-10 30t-4.5 14.5q-4 26 -2 47v53q0 54 29 350q32 307 32 439z" />
    <glyph glyph-name="r" unicode="r" horiz-adv-x="1505" 
d="M678 393l-131 6q-104 0 -217 -67q-54 -31 -74 -31q-29 -3 -29 45q0 53 35 80q45 36 45 119q106 121 148 121h2q29 0 32 -64q76 -43 201 -43l166 4q204 -3 291 -133q25 -39 35 -61q77 -154 147 -154q71 0 316 145q135 78 151 78h2q19 -3 19 -39q0 -76 -80 -120
q-14 -7 -70 -39q-352 -207 -446 -207q-35 0 -74 26q-71 49 -119 154q-53 104 -113 139q-60 32 -237 41z" />
    <glyph glyph-name="s" unicode="s" horiz-adv-x="1009" 
d="M528 606q19 40 95 103q90 75 141 75q21 0 37 -16q13 -16 4 -27q-6 -9 -31 -28q-90 -72 -90 -142q0 -77 111 -252q30 -46 53 -90q107 17 321 146q112 65 134 65v-2q22 -3 22 -53q0 -61 -37 -82q-89 -44 -182 -88q-185 -84 -217 -98q4 -28 4 -45q0 -82 -57 -133
q-23 -23 -136 -103q-45 -31 -53 -39q-31 19 -49 37q-25 28 -25 82q0 77 54 174q-21 57 -47 113q-51 111 -64 149q-17 52 -22 101q-106 -90 -211 -144q-49 -24 -68 -24h-2q-16 3 -16 28q0 81 135 160q54 32 196 133z" />
    <glyph glyph-name="t" unicode="t" horiz-adv-x="733" 
d="M252 276q0 127 55 392l15 71h-80q-160 3 -265 27q-75 15 -75 35q0 21 127 65q146 49 235 52q191 128 230 163q22 22 28 19q5 -2 27 -31q16 -53 16 -137v-12q117 -1 316 -9q154 -9 157 -41q0 -22 -84 -69q-86 -51 -135 -51q-4 0 -35.5 -1t-103.5 -2.5t-150 -3.5
q-49 -295 -49 -376q3 -113 107 -113q119 0 332 137q77 47 90 47h2q24 -3 24 -45q0 -71 -65 -106q-3 -1 -31 -17q-366 -207 -514 -213q-171 3 -174 219z" />
    <glyph glyph-name="u" unicode="u" horiz-adv-x="1574" 
d="M1858 438q20 0 20 -47q0 -65 -43 -92l-66 -33q-160 -81 -243 -112q-119 -43 -240 -43q-204 3 -244 131q-66 -63 -129 -115q-135 -111 -243 -111q-62 0 -117 37q-116 78 -195 320q-88 -76 -108 -76q-14 0 -14 45q0 75 38 98q14 8 66 60q69 75 92 75h2q6 0 15 -6
q68 -40 131 -180q79 -174 168 -209q18 -6 32 -6q62 0 168 121q79 117 127 160q39 31 92 55h4q14 -4 23 -37q1 -2 2 -5.5t2 -4.5q9 -24 12 -64q9 -63 27 -84q23 -26 117 -26q185 0 413 114q72 35 91 35z" />
    <glyph glyph-name="v" unicode="v" horiz-adv-x="1808" 
d="M383 354q-20 0 -74 -28q-53 -33 -80 -33v2q-24 0 -24 53q0 50 20 64q1 2 19 12q176 129 221 129h2q125 -3 350 -307q93 -127 146 -168q3 -3 11 -10.5t13 -12.5q38 -35 51 -35q26 0 41 95q21 140 86 196q18 15 60 43q177 116 291 119q68 0 200 -33q148 -37 232 -37
q63 0 118 25q26 13 37 10q21 -3 21 -47q0 -65 -43 -92q-22 -13 -64 -31q-152 -72 -207 -75h-6q-61 0 -196 36q-187 51 -310 54q-8 -27 -10 -43q-42 -159 -84 -209q-3 -3 -6 -7t-7.5 -11.5t-8.5 -12.5q-76 -111 -117 -129q-13 -7 -59 -10q-6 -1 -18 -2t-17 -2q-20 -4 -33 -4
q-132 0 -276 182q-64 86 -72 98q-153 218 -207 221z" />
    <glyph glyph-name="w" unicode="w" horiz-adv-x="2021" 
d="M1993 201l-6 -2q-94 0 -277 131q-28 20 -80 59q-9 -99 -57 -156q-16 -16 -29 -34q-115 -160 -221 -160q-81 0 -168 90l-20 18q-17 17 -23 25q-24 30 -82 76q-103 80 -151 80h-2q-55 0 -150 -86q-104 -90 -158 -90h-2q-60 0 -112 112q-41 86 -76 86q-21 0 -86 -35
q-54 -32 -76 -32t-22 43q0 65 53 100q32 20 76 59q55 50 84 64q20 10 38 10q94 0 189 -182q12 -24 18 -33q8 -14 23 -14q38 0 172 119q17 15 51 40q27 17 70 17q116 0 252 -115q73 -64 125 -137q38 -53 51 -53q25 0 49 133q11 60 16 72q27 82 158 149q39 20 51 20q8 0 29 -6
q114 -27 227 -94q141 -78 230 -78q53 0 108 27q37 16 47 14q17 -3 17 -32q0 -94 -144 -158q-100 -47 -192 -47z" />
    <glyph glyph-name="x" unicode="x" horiz-adv-x="1271" 
d="M336 -82q-25 0 -25 4q0 10 254 221l-180 195l-137 -43q-10 3 -10 45q0 76 30 94q4 1 33 23q126 100 184 100q51 0 101 -84q52 -83 151 -172q265 244 361 244q14 0 14 -6q0 -24 -287 -287q87 -35 168 -35q180 0 469 172q82 49 97 49h2q24 -3 24 -45q0 -70 -74 -108
q-22 -9 -110 -70q-311 -215 -459 -215h-2q-146 0 -293 84l-20 -21q-136 -145 -291 -145z" />
    <glyph glyph-name="y" unicode="y" horiz-adv-x="1591" 
d="M250 295q-23 0 -23 47q0 75 60 100q10 3 26 13q77 41 121 41q103 0 266 -217q99 -129 136 -129q6 0 10 4q11 8 57 69q37 54 68 88q71 80 166 127q51 23 65 23q58 0 82 -187q14 -98 14 -241q89 95 340 268q145 99 191 123q28 14 49 14h2q18 -3 18 -45q0 -69 -47 -96
q-6 -4 -34 -18q-227 -115 -371 -271q-75 -80 -186 -237q-100 -283 -230 -383q-12 -9 -41 -35q-103 -92 -149 -98l-4 -3q-27 3 -27 66v27q0 27 39 98q63 117 207 313q43 154 43 375q0 100 -8 141q-69 -100 -113 -141q-30 -25 -53 -43q-138 -106 -211 -106q-62 0 -133 77
q-6 7 -33 41t-47 60q-74 101 -119 139q-27 27 -53 27v-2q-21 0 -52 -17q-15 -12 -26 -12zM864 -653q-20 -16 -43 -39q30 23 43 39z" />
    <glyph glyph-name="z" unicode="z" horiz-adv-x="1157" 
d="M717 -248q-292 -279 -318 -307q-42 -45 -77 -57q73 14 178 59q114 47 284 102q181 61 181 119q0 60 -248 84zM549 696l-33 -141q0 -33 160 -80q158 -45 205 -82q43 -34 43 -96v-31q0 -70 -103 -147q-107 -80 -145 -113q-52 -42 -72 -53q37 -3 146 -6q281 272 479 381
q198 110 219 110h2q18 -3 18 -30q0 -87 -172 -175q-172 -85 -383 -296q226 -24 226 -127q0 -105 -193 -277q-190 -178 -422 -254q-232 -78 -291 -78q-63 0 -63 51q0 127 393 517q-109 15 -174 92q3 3 35 38.5t63 71.5q88 98 168 152q88 69 88 82q0 19 -49 28q-20 5 -40 11
l-21 6q-2 1 -16 5.5t-40.5 12t-56.5 15.5q-101 27 -123 49q-23 20 -39 20l-120 -63q-15 0 -15 57q0 59 33 82l18 18q-32 46 -32 115q0 68 100 152q105 82 154 82q53 0 53 -99z" />
    <glyph glyph-name="braceleft" unicode="{" horiz-adv-x="399" 
d="M315 1051q21 11 138 88q122 78 159 78h2q21 0 21 -35q0 -57 -94 -103l-43 -20q-7 -4 -16 -8.5t-14.5 -7.5t-8.5 -5q-45 -29 -45 -90q0 -35 20 -102q19 -74 19 -113t-15 -82q-12 -37 -12 -41q-13 -49 -162 -137q-47 -27 -61 -41q11 -7 86 -22q78 -15 78 -37t-125 -293
t-125 -320q0 -16 18 -16q20 0 41 8l41 17q35 12 49 12q17 0 17 -25q0 -47 -74 -121q-75 -75 -143 -75v2q-65 0 -74 55v14q0 138 82 275q56 94 82 258q1 8 4 22t4 19q4 24 4 28q0 80 -148 127q-25 6 -22 31q9 61 141 107q29 10 43 18q111 52 111 182q0 38 -14 117
q-17 64 -17 117q0 92 53 119z" />
    <glyph glyph-name="bar" unicode="|" horiz-adv-x="411" 
d="M408 1352h122l-368 -2077h-123z" />
    <glyph glyph-name="braceright" unicode="}" horiz-adv-x="399" 
d="M307 -274q-4 -2 -139 -86q-118 -80 -160 -80q-22 0 -22 30q3 62 98 109l41 20q38 19 41 21q45 26 45 76q0 46 -21 116q-20 67 -20 113q0 41 14 82q15 38 15 41q13 50 161 137q44 25 60 41q-28 9 -86 23q-78 15 -78 37q0 21 125 292t125 320q0 16 -19 16q-11 0 -41 -10
l-40 -14q-37 -13 -50 -13q-16 0 -16 23q0 45 78 123q76 76 141 76l2 -2q72 -3 72 -60q0 -138 -84 -285q-56 -94 -82 -258q-1 -9 -4 -24.5t-4 -18.5q-4 -24 -4 -28q0 -81 147 -127q26 0 23 -31q-9 -57 -142 -104q-25 -9 -43 -19q-108 -52 -108 -182v-10q0 -51 14 -111
t14 -115q0 -91 -53 -118z" />
    <glyph glyph-name="asciitilde" unicode="~" horiz-adv-x="1280" 
d="M389 260q67 47 86 64q23 20 76 20q51 0 154 -59q105 -60 180 -60h2q76 0 231 103q71 47 88 47h2q18 -4 15 -25q0 -46 -70 -104q-193 -156 -334 -156q-100 0 -237 84q-70 43 -109 43h-2q-36 0 -98 -53l-37 -33q-72 -57 -129 -57q-25 0 -25 12q0 29 207 174z" />
    <glyph glyph-name="o.t" horiz-adv-x="1126" 
d="M788 616q160 0 541 252q93 60 125 86q55 38 82 50q28 14 86 14q57 0 57 -10q0 -14 -139 -144q-121 -116 -291 -239q-153 -109 -348 -174q-83 -27 -145 -33l2 -49q0 -29 -23 -93q-57 -144 -198 -219q-59 -30 -84 -30q-67 0 -166 188q-35 66 -58 86q-20 23 -20 76
q0 86 67 129q40 24 82 24q70 0 70 -57q0 -22 -6 -37q-8 -13 -8 -26q0 -32 53 -88q51 -54 74 -64q2 10 2 25q0 41 -51 120q-54 74 -54 109q0 51 121 98q53 21 82 21z" />
    <glyph glyph-name="k.alt1" horiz-adv-x="1261" 
d="M1319 51q108 -6 172 -6h111q45 3 45 -4q0 -9 -37 -64q-46 -63 -62 -94q-113 -73 -311 -73q-257 0 -424 124q-106 78 -141 181q-22 -8 -66 -31q-121 -68 -205 -68q-87 0 -133 82q-47 83 -47 185q0 226 207 675q2 4 4.5 10.5t3.5 8.5q83 182 228 303q84 72 135 72
q65 0 65 -109q0 -168 -260 -498q-10 -13 -49 -59q-84 -304 -84 -395q0 -94 66 -94q88 0 309 188q53 47 88 47q34 0 67 -10q27 -8 46 -27q14 -14 14 -20q-1 -1 -2.5 -4t-4.5 -8t-5 -9q-45 -62 -156 -141q144 -144 426 -162z" />
    <glyph glyph-name="NameMe.259" horiz-adv-x="1261" 
d="M1647 954q28 0 28 -61q0 -58 -47 -129l-2 -4q-344 -497 -491 -641q-147 -150 -261 -150q-125 0 -196 185l-8 24l-37 -20q-148 -80 -209 -80q-109 3 -162 92q-41 71 -41 190q0 245 168 527q130 220 281 352q78 66 127 66q67 0 67 -109q0 -22 -6 -57q-44 -237 -307 -541
q-54 -64 -57 -82q-23 -100 -23 -174q0 -82 66 -82q89 0 315 191l35 28q16 13 53 13q79 0 113 -43q8 -8 8 -13l-12 -20q-46 -64 -156 -142q72 -69 98 -69q22 -3 53 22q133 107 500 617q27 39 62 84q17 26 41 26z" />
    <glyph glyph-name="r.alt1" horiz-adv-x="1505" 
d="M678 393l-131 6q-108 0 -232 -75q-41 -23 -57 -21q-31 0 -31 45q0 44 39 80q41 33 41 117q109 121 150 121q29 0 32 -64q76 -43 203 -43l158 4q208 0 297 -133q24 -39 35 -63q61 -118 102 -142q20 -10 51 -10q38 0 217 43q370 88 590 88q218 0 580 -74q22 -3 22 -41
t-57 -67q-23 -10 -33 -10q-12 0 -106 18q-301 59 -463 59q-240 0 -623 -118q-204 -64 -254 -64q-48 0 -90 29q-40 25 -92 133q-49 101 -113 139q-61 34 -235 43z" />
    </font>
</defs>
</svg>
